<?xml version="1.0" standalone="no"?>
<!DOCTYPE svg PUBLIC "-//W3C//DTD SVG 20010904//EN"
 "http://www.w3.org/TR/2001/REC-SVG-20010904/DTD/svg10.dtd">
<svg version="1.0" xmlns="http://www.w3.org/2000/svg"
 width="192.000000pt" height="191.000000pt" viewBox="0 0 192.000000 191.000000"
 preserveAspectRatio="xMidYMid meet">

<g transform="translate(0.000000,191.000000) scale(0.100000,-0.100000)"
fill="#000000" stroke="none">
<path d="M10 1790 l0 -120 955 0 955 0 0 120 0 120 -955 0 -955 0 0 -120z"/>
<path d="M10 1115 l0 -435 300 0 300 0 0 -340 0 -340 135 0 135 0 0 775 0 775
-135 0 -135 0 0 -300 0 -300 -165 0 -165 0 0 300 0 300 -135 0 -135 0 0 -435z"/>
<path d="M1060 775 l0 -775 430 0 430 0 0 135 0 135 -295 0 -295 0 0 640 0
640 -135 0 -135 0 0 -775z"/>
</g>
</svg>
